# xmcd
#
# Track frame offsets: 
#        150
#        24858
#        47766
#        64517
#        82054
#        98192
#        119401
#        142815
#        162793
#        181051
#        201916
#        226573
#        247083
#        266589
#        281460
#
# Disc length: 4022 seconds
#
# Revision: 1
# Processed by: cddbd v1.5.2PL0 Copyright (c) Steve Scherf et al.
# Submitted via: ExactAudioCopyFreeDBPlugin 1.0
#
DISCID=c10fb40f
DTITLE=CDS制作 - TEST-CD-27B【网络醉烧】
DYEAR=2015
DGENRE=STE
TTITLE0=伤了心的女人怎么了
TTITLE1=你若盛开
TTITLE2=像梦一样自由
TTITLE3=你要放手也无所谓
TTITLE4=卷珠帘
TTITLE5=愿得一人心
TTITLE6=等你等了那么久
TTITLE7=需要人陪
TTITLE8=不要对我说无所谓
TTITLE9=你懂得
TTITLE10=情歌好听却难唱
TTITLE11=烟花易冷
TTITLE12=火火的姑娘
TTITLE13=手拉手亲口口
TTITLE14=寂寞的人容易醉
EXTD=
EXTT0=
EXTT1=
EXTT2=
EXTT3=
EXTT4=
EXTT5=
EXTT6=
EXTT7=
EXTT8=
EXTT9=
EXTT10=
EXTT11=
EXTT12=
EXTT13=
EXTT14=
PLAYORDER=
